<?xml version="1.0" encoding="UTF-8" standalone="no"?>
<svg
   version="1.1"
   x="0px"
   y="0px"
   viewBox="0 0 95 94.998886"
   xml:space="preserve"
   id="svg95"
   sodipodi:docname="brightness.svg"
   width="95"
   height="94.998886"
   inkscape:version="1.1.2 (0a00cf5339, 2022-02-04)"
   xmlns:inkscape="http://www.inkscape.org/namespaces/inkscape"
   xmlns:sodipodi="http://sodipodi.sourceforge.net/DTD/sodipodi-0.dtd"
   xmlns="http://www.w3.org/2000/svg"
   xmlns:svg="http://www.w3.org/2000/svg"><defs
     id="defs99" /><sodipodi:namedview
     id="namedview97"
     pagecolor="#ffffff"
     bordercolor="#666666"
     borderopacity="1.0"
     inkscape:pageshadow="2"
     inkscape:pageopacity="0.0"
     inkscape:pagecheckerboard="0"
     showgrid="false"
     fit-margin-top="0"
     fit-margin-left="0"
     fit-margin-right="0"
     fit-margin-bottom="0"
     inkscape:zoom="6.56"
     inkscape:cx="47.484756"
     inkscape:cy="60.060976"
     inkscape:window-width="1916"
     inkscape:window-height="1032"
     inkscape:window-x="0"
     inkscape:window-y="0"
     inkscape:window-maximized="1"
     inkscape:current-layer="svg95" /><style
     type="text/css"
     id="style71">
	.st0{fill-rule:evenodd;clip-rule:evenodd;}
</style><path
     d="m 44.814815,86.891079 h 5.861137 v 8.107803 h -5.861137 z"
     id="path73" /><path
     d="m 44.814815,0 h 5.861137 v 8.1077935 h -5.861137 z"
     id="path75" /><path
     d="m 79.501586,11.953371 4.144554,4.144549 -5.732979,5.732973 -4.144546,-4.144548 z"
     id="path77" /><path
     d="m 17.498563,74.210926 4.14455,4.144554 -5.732973,5.732972 -4.144549,-4.144554 z"
     id="path79" /><path
     d="m 0,45.057076 h 8.107794 v 5.861137 H 0 Z"
     id="path81" /><path
     d="m 21.700721,17.839069 -4.144549,4.14455 -5.732972,-5.732973 4.14455,-4.144549 z"
     id="path83" /><path
     d="m 83.728301,80.092159 -4.144554,4.144554 -5.732971,-5.732971 4.144554,-4.144554 z"
     id="path85" /><path
     d="m 86.892203,46.035046 h 8.107796 v 5.861137 h -8.107796 z"
     id="path87" /><path
     d="m 76.806579,47.865955 c 0,16.050142 -13.011284,29.062309 -29.062313,29.062309 -16.05103,0 -29.06231,-13.011276 -29.06231,-29.062309 0,-16.051033 13.01128,-29.062311 29.062309,-29.062311 16.05103,0 29.062314,13.011278 29.062314,29.062311"
     id="path89" /></svg>
